<?xml version="1.0" encoding="utf-8"?>
<svg version="1.1" xmlns:xlink="http://www.w3.org/1999/xlink" width="12px" height="12px" viewBox="108 180  12 12" xmlns="http://www.w3.org/2000/svg">
  <path d="M 114 180  C 117.36 180  120 182.64  120 186  C 120 189.36  117.36 192  114 192  C 110.64 192  108 189.36  108 186  C 108 182.64  110.64 180  114 180  Z " fill-rule="nonzero" fill="#f0f0f0" stroke="none" />
  <path d="M 114 180.5  C 117.08 180.5  119.5 182.92  119.5 186  C 119.5 189.08  117.08 191.5  114 191.5  C 110.92 191.5  108.5 189.08  108.5 186  C 108.5 182.92  110.92 180.5  114 180.5  Z " stroke-width="1" stroke="#797979" fill="none" />
  <path d="M 114 189  C 112.32 189  111 187.68  111 186  C 111 184.32  112.32 183  114 183  C 115.68 183  117 184.32  117 186  C 117 187.68  115.68 189  114 189  " fill-rule="nonzero" fill="#797979" stroke="none" />
</svg>