<?xml version="1.0" encoding="utf-8"?>
<svg version="1.1" xmlns:xlink="http://www.w3.org/1999/xlink" width="12px" height="12px" viewBox="211 298  12 12" xmlns="http://www.w3.org/2000/svg">
  <path d="M 217 298  C 220.36 298  223 300.64  223 304  C 223 307.36  220.36 310  217 310  C 213.64 310  211 307.36  211 304  C 211 300.64  213.64 298  217 298  Z " fill-rule="nonzero" fill="#f0f0f0" stroke="none" />
  <path d="M 217 298.5  C 220.08 298.5  222.5 300.92  222.5 304  C 222.5 307.08  220.08 309.5  217 309.5  C 213.92 309.5  211.5 307.08  211.5 304  C 211.5 300.92  213.92 298.5  217 298.5  Z " stroke-width="1" stroke="#797979" fill="none" />
  <path d="M 217 307  C 215.32 307  214 305.68  214 304  C 214 302.32  215.32 301  217 301  C 218.68 301  220 302.32  220 304  C 220 305.68  218.68 307  217 307  " fill-rule="nonzero" fill="#797979" stroke="none" />
</svg>