<?xml version="1.0" encoding="utf-8"?>
<svg version="1.1" xmlns:xlink="http://www.w3.org/1999/xlink" width="12px" height="12px" viewBox="173 299  12 12" xmlns="http://www.w3.org/2000/svg">
  <path d="M 179 299  C 182.36 299  185 301.64  185 305  C 185 308.36  182.36 311  179 311  C 175.64 311  173 308.36  173 305  C 173 301.64  175.64 299  179 299  Z " fill-rule="nonzero" fill="#f0f0f0" stroke="none" />
  <path d="M 179 299.5  C 182.08 299.5  184.5 301.92  184.5 305  C 184.5 308.08  182.08 310.5  179 310.5  C 175.92 310.5  173.5 308.08  173.5 305  C 173.5 301.92  175.92 299.5  179 299.5  Z " stroke-width="1" stroke="#797979" fill="none" />
  <path d="M 179 308  C 177.32 308  176 306.68  176 305  C 176 303.32  177.32 302  179 302  C 180.68 302  182 303.32  182 305  C 182 306.68  180.68 308  179 308  " fill-rule="nonzero" fill="#797979" stroke="none" />
</svg>