<?xml version="1.0" encoding="utf-8"?>
<svg version="1.1" xmlns:xlink="http://www.w3.org/1999/xlink" width="12px" height="12px" viewBox="241 299  12 12" xmlns="http://www.w3.org/2000/svg">
  <path d="M 247 299  C 250.36 299  253 301.64  253 305  C 253 308.36  250.36 311  247 311  C 243.64 311  241 308.36  241 305  C 241 301.64  243.64 299  247 299  Z " fill-rule="nonzero" fill="#f0f0f0" stroke="none" />
  <path d="M 247 299.5  C 250.08 299.5  252.5 301.92  252.5 305  C 252.5 308.08  250.08 310.5  247 310.5  C 243.92 310.5  241.5 308.08  241.5 305  C 241.5 301.92  243.92 299.5  247 299.5  Z " stroke-width="1" stroke="#797979" fill="none" />
  <path d="M 247 308  C 245.32 308  244 306.68  244 305  C 244 303.32  245.32 302  247 302  C 248.68 302  250 303.32  250 305  C 250 306.68  248.68 308  247 308  " fill-rule="nonzero" fill="#797979" stroke="none" />
</svg>