<?xml version="1.0" encoding="utf-8"?>
<svg version="1.1" xmlns:xlink="http://www.w3.org/1999/xlink" width="12px" height="12px" viewBox="229 277  12 12" xmlns="http://www.w3.org/2000/svg">
  <path d="M 235 277  C 238.36 277  241 279.64  241 283  C 241 286.36  238.36 289  235 289  C 231.64 289  229 286.36  229 283  C 229 279.64  231.64 277  235 277  Z " fill-rule="nonzero" fill="#ffffff" stroke="none" />
  <path d="M 235 277.5  C 238.08 277.5  240.5 279.92  240.5 283  C 240.5 286.08  238.08 288.5  235 288.5  C 231.92 288.5  229.5 286.08  229.5 283  C 229.5 279.92  231.92 277.5  235 277.5  Z " stroke-width="1" stroke="#797979" fill="none" />
  <path d="M 235 286  C 233.32 286  232 284.68  232 283  C 232 281.32  233.32 280  235 280  C 236.68 280  238 281.32  238 283  C 238 284.68  236.68 286  235 286  " fill-rule="nonzero" fill="#797979" stroke="none" />
</svg>