<?xml version="1.0" encoding="utf-8"?>
<svg version="1.1" xmlns:xlink="http://www.w3.org/1999/xlink" width="12px" height="12px" viewBox="111 298  12 12" xmlns="http://www.w3.org/2000/svg">
  <path d="M 117 298  C 120.36 298  123 300.64  123 304  C 123 307.36  120.36 310  117 310  C 113.64 310  111 307.36  111 304  C 111 300.64  113.64 298  117 298  Z " fill-rule="nonzero" fill="#f0f0f0" stroke="none" />
  <path d="M 117 298.5  C 120.08 298.5  122.5 300.92  122.5 304  C 122.5 307.08  120.08 309.5  117 309.5  C 113.92 309.5  111.5 307.08  111.5 304  C 111.5 300.92  113.92 298.5  117 298.5  Z " stroke-width="1" stroke="#797979" fill="none" />
  <path d="M 117 307  C 115.32 307  114 305.68  114 304  C 114 302.32  115.32 301  117 301  C 118.68 301  120 302.32  120 304  C 120 305.68  118.68 307  117 307  " fill-rule="nonzero" fill="#797979" stroke="none" />
</svg>