<?xml version="1.0" encoding="utf-8"?>
<svg version="1.1" xmlns:xlink="http://www.w3.org/1999/xlink" width="12px" height="12px" viewBox="300 59  12 12" xmlns="http://www.w3.org/2000/svg">
  <path d="M 306 59  C 309.36 59  312 61.64  312 65  C 312 68.36  309.36 71  306 71  C 302.64 71  300 68.36  300 65  C 300 61.64  302.64 59  306 59  Z " fill-rule="nonzero" fill="#ffffff" stroke="none" />
  <path d="M 306 59.5  C 309.08 59.5  311.5 61.92  311.5 65  C 311.5 68.08  309.08 70.5  306 70.5  C 302.92 70.5  300.5 68.08  300.5 65  C 300.5 61.92  302.92 59.5  306 59.5  Z " stroke-width="1" stroke="#797979" fill="none" />
  <path d="M 306 68  C 304.32 68  303 66.68  303 65  C 303 63.32  304.32 62  306 62  C 307.68 62  309 63.32  309 65  C 309 66.68  307.68 68  306 68  " fill-rule="nonzero" fill="#797979" stroke="none" />
</svg>