<?xml version="1.0" encoding="utf-8"?>
<svg version="1.1" xmlns:xlink="http://www.w3.org/1999/xlink" width="12px" height="12px" viewBox="149 79  12 12" xmlns="http://www.w3.org/2000/svg">
  <path d="M 155 79  C 158.36 79  161 81.64  161 85  C 161 88.36  158.36 91  155 91  C 151.64 91  149 88.36  149 85  C 149 81.64  151.64 79  155 79  Z " fill-rule="nonzero" fill="#ffffff" stroke="none" />
  <path d="M 155 79.5  C 158.08 79.5  160.5 81.92  160.5 85  C 160.5 88.08  158.08 90.5  155 90.5  C 151.92 90.5  149.5 88.08  149.5 85  C 149.5 81.92  151.92 79.5  155 79.5  Z " stroke-width="1" stroke="#797979" fill="none" />
  <path d="M 155 88  C 153.32 88  152 86.68  152 85  C 152 83.32  153.32 82  155 82  C 156.68 82  158 83.32  158 85  C 158 86.68  156.68 88  155 88  " fill-rule="nonzero" fill="#797979" stroke="none" />
</svg>