<?xml version="1.0" encoding="utf-8"?>
<svg version="1.1" xmlns:xlink="http://www.w3.org/1999/xlink" width="12px" height="12px" viewBox="249 79  12 12" xmlns="http://www.w3.org/2000/svg">
  <path d="M 255 79  C 258.36 79  261 81.64  261 85  C 261 88.36  258.36 91  255 91  C 251.64 91  249 88.36  249 85  C 249 81.64  251.64 79  255 79  Z " fill-rule="nonzero" fill="#ffffff" stroke="none" />
  <path d="M 255 79.5  C 258.08 79.5  260.5 81.92  260.5 85  C 260.5 88.08  258.08 90.5  255 90.5  C 251.92 90.5  249.5 88.08  249.5 85  C 249.5 81.92  251.92 79.5  255 79.5  Z " stroke-width="1" stroke="#797979" fill="none" />
  <path d="M 255 88  C 253.32 88  252 86.68  252 85  C 252 83.32  253.32 82  255 82  C 256.68 82  258 83.32  258 85  C 258 86.68  256.68 88  255 88  " fill-rule="nonzero" fill="#797979" stroke="none" />
</svg>