<?xml version="1.0" encoding="utf-8"?>
<svg version="1.1" xmlns:xlink="http://www.w3.org/1999/xlink" width="12px" height="12px" viewBox="424 351  12 12" xmlns="http://www.w3.org/2000/svg">
  <path d="M 430 351  C 433.36 351  436 353.64  436 357  C 436 360.36  433.36 363  430 363  C 426.64 363  424 360.36  424 357  C 424 353.64  426.64 351  430 351  Z " fill-rule="nonzero" fill="#ffffff" stroke="none" />
  <path d="M 430 351.5  C 433.08 351.5  435.5 353.92  435.5 357  C 435.5 360.08  433.08 362.5  430 362.5  C 426.92 362.5  424.5 360.08  424.5 357  C 424.5 353.92  426.92 351.5  430 351.5  Z " stroke-width="1" stroke="#797979" fill="none" />
  <path d="M 430 360  C 428.32 360  427 358.68  427 357  C 427 355.32  428.32 354  430 354  C 431.68 354  433 355.32  433 357  C 433 358.68  431.68 360  430 360  " fill-rule="nonzero" fill="#797979" stroke="none" />
</svg>