<?xml version="1.0" encoding="utf-8"?>
<svg version="1.1" xmlns:xlink="http://www.w3.org/1999/xlink" width="12px" height="12px" viewBox="418 70  12 12" xmlns="http://www.w3.org/2000/svg">
  <path d="M 424 70  C 427.36 70  430 72.64  430 76  C 430 79.36  427.36 82  424 82  C 420.64 82  418 79.36  418 76  C 418 72.64  420.64 70  424 70  Z " fill-rule="nonzero" fill="#ffffff" stroke="none" />
  <path d="M 424 70.5  C 427.08 70.5  429.5 72.92  429.5 76  C 429.5 79.08  427.08 81.5  424 81.5  C 420.92 81.5  418.5 79.08  418.5 76  C 418.5 72.92  420.92 70.5  424 70.5  Z " stroke-width="1" stroke="#797979" fill="none" />
  <path d="M 424 79  C 422.32 79  421 77.68  421 76  C 421 74.32  422.32 73  424 73  C 425.68 73  427 74.32  427 76  C 427 77.68  425.68 79  424 79  " fill-rule="nonzero" fill="#797979" stroke="none" />
</svg>