<?xml version="1.0" encoding="utf-8"?>
<svg version="1.1" xmlns:xlink="http://www.w3.org/1999/xlink" width="12px" height="12px" viewBox="198 141  12 12" xmlns="http://www.w3.org/2000/svg">
  <path d="M 204 141  C 207.36 141  210 143.64  210 147  C 210 150.36  207.36 153  204 153  C 200.64 153  198 150.36  198 147  C 198 143.64  200.64 141  204 141  Z " fill-rule="nonzero" fill="#ffffff" stroke="none" />
  <path d="M 204 141.5  C 207.08 141.5  209.5 143.92  209.5 147  C 209.5 150.08  207.08 152.5  204 152.5  C 200.92 152.5  198.5 150.08  198.5 147  C 198.5 143.92  200.92 141.5  204 141.5  Z " stroke-width="1" stroke="#797979" fill="none" />
  <path d="M 204 150  C 202.32 150  201 148.68  201 147  C 201 145.32  202.32 144  204 144  C 205.68 144  207 145.32  207 147  C 207 148.68  205.68 150  204 150  " fill-rule="nonzero" fill="#797979" stroke="none" />
</svg>