<?xml version="1.0" encoding="utf-8"?>
<svg version="1.1" xmlns:xlink="http://www.w3.org/1999/xlink" width="12px" height="12px" viewBox="98 141  12 12" xmlns="http://www.w3.org/2000/svg">
  <path d="M 104 141  C 107.36 141  110 143.64  110 147  C 110 150.36  107.36 153  104 153  C 100.64 153  98 150.36  98 147  C 98 143.64  100.64 141  104 141  Z " fill-rule="nonzero" fill="#f0f0f0" stroke="none" />
  <path d="M 104 141.5  C 107.08 141.5  109.5 143.92  109.5 147  C 109.5 150.08  107.08 152.5  104 152.5  C 100.92 152.5  98.5 150.08  98.5 147  C 98.5 143.92  100.92 141.5  104 141.5  Z " stroke-width="1" stroke="#797979" fill="none" />
  <path d="M 104 150  C 102.32 150  101 148.68  101 147  C 101 145.32  102.32 144  104 144  C 105.68 144  107 145.32  107 147  C 107 148.68  105.68 150  104 150  " fill-rule="nonzero" fill="#797979" stroke="none" />
</svg>