<?xml version="1.0" encoding="utf-8"?>
<svg version="1.1" xmlns:xlink="http://www.w3.org/1999/xlink" width="12px" height="12px" viewBox="204 438  12 12" xmlns="http://www.w3.org/2000/svg">
  <path d="M 210 438  C 213.36 438  216 440.64  216 444  C 216 447.36  213.36 450  210 450  C 206.64 450  204 447.36  204 444  C 204 440.64  206.64 438  210 438  Z " fill-rule="nonzero" fill="#ffffff" stroke="none" />
  <path d="M 210 438.5  C 213.08 438.5  215.5 440.92  215.5 444  C 215.5 447.08  213.08 449.5  210 449.5  C 206.92 449.5  204.5 447.08  204.5 444  C 204.5 440.92  206.92 438.5  210 438.5  Z " stroke-width="1" stroke="#797979" fill="none" />
  <path d="M 210 447  C 208.32 447  207 445.68  207 444  C 207 442.32  208.32 441  210 441  C 211.68 441  213 442.32  213 444  C 213 445.68  211.68 447  210 447  " fill-rule="nonzero" fill="#797979" stroke="none" />
</svg>