<?xml version="1.0" encoding="utf-8"?>
<svg version="1.1" xmlns:xlink="http://www.w3.org/1999/xlink" width="12px" height="12px" viewBox="285 437  12 12" xmlns="http://www.w3.org/2000/svg">
  <path d="M 291 437  C 294.36 437  297 439.64  297 443  C 297 446.36  294.36 449  291 449  C 287.64 449  285 446.36  285 443  C 285 439.64  287.64 437  291 437  Z " fill-rule="nonzero" fill="#ffffff" stroke="none" />
  <path d="M 291 437.5  C 294.08 437.5  296.5 439.92  296.5 443  C 296.5 446.08  294.08 448.5  291 448.5  C 287.92 448.5  285.5 446.08  285.5 443  C 285.5 439.92  287.92 437.5  291 437.5  Z " stroke-width="1" stroke="#797979" fill="none" />
  <path d="M 291 446  C 289.32 446  288 444.68  288 443  C 288 441.32  289.32 440  291 440  C 292.68 440  294 441.32  294 443  C 294 444.68  292.68 446  291 446  " fill-rule="nonzero" fill="#797979" stroke="none" />
</svg>