<?xml version="1.0" encoding="utf-8"?>
<svg version="1.1" xmlns:xlink="http://www.w3.org/1999/xlink" width="12px" height="12px" viewBox="134 79  12 12" xmlns="http://www.w3.org/2000/svg">
  <path d="M 140 79  C 143.36 79  146 81.64  146 85  C 146 88.36  143.36 91  140 91  C 136.64 91  134 88.36  134 85  C 134 81.64  136.64 79  140 79  Z " fill-rule="nonzero" fill="#ffffff" stroke="none" />
  <path d="M 140 79.5  C 143.08 79.5  145.5 81.92  145.5 85  C 145.5 88.08  143.08 90.5  140 90.5  C 136.92 90.5  134.5 88.08  134.5 85  C 134.5 81.92  136.92 79.5  140 79.5  Z " stroke-width="1" stroke="#797979" fill="none" />
  <path d="M 140 88  C 138.32 88  137 86.68  137 85  C 137 83.32  138.32 82  140 82  C 141.68 82  143 83.32  143 85  C 143 86.68  141.68 88  140 88  " fill-rule="nonzero" fill="#797979" stroke="none" />
</svg>