<?xml version="1.0" encoding="utf-8"?>
<svg version="1.1" xmlns:xlink="http://www.w3.org/1999/xlink" width="12px" height="12px" viewBox="268 81  12 12" xmlns="http://www.w3.org/2000/svg">
  <path d="M 274 81  C 277.36 81  280 83.64  280 87  C 280 90.36  277.36 93  274 93  C 270.64 93  268 90.36  268 87  C 268 83.64  270.64 81  274 81  Z " fill-rule="nonzero" fill="#ffffff" stroke="none" />
  <path d="M 274 81.5  C 277.08 81.5  279.5 83.92  279.5 87  C 279.5 90.08  277.08 92.5  274 92.5  C 270.92 92.5  268.5 90.08  268.5 87  C 268.5 83.92  270.92 81.5  274 81.5  Z " stroke-width="1" stroke="#797979" fill="none" />
  <path d="M 274 90  C 272.32 90  271 88.68  271 87  C 271 85.32  272.32 84  274 84  C 275.68 84  277 85.32  277 87  C 277 88.68  275.68 90  274 90  " fill-rule="nonzero" fill="#797979" stroke="none" />
</svg>