<?xml version="1.0" encoding="utf-8"?>
<svg version="1.1" xmlns:xlink="http://www.w3.org/1999/xlink" width="12px" height="12px" viewBox="315 93  12 12" xmlns="http://www.w3.org/2000/svg">
  <path d="M 321 93  C 324.36 93  327 95.64  327 99  C 327 102.36  324.36 105  321 105  C 317.64 105  315 102.36  315 99  C 315 95.64  317.64 93  321 93  Z " fill-rule="nonzero" fill="#ffffff" stroke="none" />
  <path d="M 321 93.5  C 324.08 93.5  326.5 95.92  326.5 99  C 326.5 102.08  324.08 104.5  321 104.5  C 317.92 104.5  315.5 102.08  315.5 99  C 315.5 95.92  317.92 93.5  321 93.5  Z " stroke-width="1" stroke="#797979" fill="none" />
  <path d="M 321 102  C 319.32 102  318 100.68  318 99  C 318 97.32  319.32 96  321 96  C 322.68 96  324 97.32  324 99  C 324 100.68  322.68 102  321 102  " fill-rule="nonzero" fill="#797979" stroke="none" />
</svg>