<?xml version="1.0" encoding="utf-8"?>
<svg version="1.1" xmlns:xlink="http://www.w3.org/1999/xlink" width="12px" height="12px" viewBox="71 50  12 12" xmlns="http://www.w3.org/2000/svg">
  <path d="M 77 50  C 80.36 50  83 52.64  83 56  C 83 59.36  80.36 62  77 62  C 73.64 62  71 59.36  71 56  C 71 52.64  73.64 50  77 50  Z " fill-rule="nonzero" fill="#ffffff" stroke="none" />
  <path d="M 77 50.5  C 80.08 50.5  82.5 52.92  82.5 56  C 82.5 59.08  80.08 61.5  77 61.5  C 73.92 61.5  71.5 59.08  71.5 56  C 71.5 52.92  73.92 50.5  77 50.5  Z " stroke-width="1" stroke="#797979" fill="none" />
  <path d="M 77 59  C 75.32 59  74 57.68  74 56  C 74 54.32  75.32 53  77 53  C 78.68 53  80 54.32  80 56  C 80 57.68  78.68 59  77 59  " fill-rule="nonzero" fill="#797979" stroke="none" />
</svg>