<?xml version="1.0" encoding="utf-8"?>
<svg version="1.1" xmlns:xlink="http://www.w3.org/1999/xlink" width="12px" height="12px" viewBox="139 59  12 12" xmlns="http://www.w3.org/2000/svg">
  <path d="M 145 59  C 148.36 59  151 61.64  151 65  C 151 68.36  148.36 71  145 71  C 141.64 71  139 68.36  139 65  C 139 61.64  141.64 59  145 59  Z " fill-rule="nonzero" fill="#f0f0f0" stroke="none" />
  <path d="M 145 59.5  C 148.08 59.5  150.5 61.92  150.5 65  C 150.5 68.08  148.08 70.5  145 70.5  C 141.92 70.5  139.5 68.08  139.5 65  C 139.5 61.92  141.92 59.5  145 59.5  Z " stroke-width="1" stroke="#797979" fill="none" />
  <path d="M 145 68  C 143.32 68  142 66.68  142 65  C 142 63.32  143.32 62  145 62  C 146.68 62  148 63.32  148 65  C 148 66.68  146.68 68  145 68  " fill-rule="nonzero" fill="#797979" stroke="none" />
</svg>